<svg width="96" height="92" viewBox="0 0 96 92" fill="none" xmlns="http://www.w3.org/2000/svg">
    <g clip-path="url(#ffsstus81a)">
        <path d="M93.773 42.46v36.282l-11.777 11.19-41.001.005-37.952-.005V42.46h90.73z" fill="#fff"/>
        <path d="M40.618 23.434H7.698a5.627 5.627 0 0 0-5.628 5.628v14.134h91.704V23.435H40.618z" fill="#D3C4F6"/>
        <path d="M93.773 46.343v32.398l-11.777 11.19H66.63M40.995 89.937H2V42.46h41.059M13.403 58.828h6.257M13.403 77.236h50.165M32.174 58.828h50.059" stroke="#270570" stroke-width="3" stroke-linecap="round" stroke-linejoin="round"/>
        <path d="M40.618 23.434H7.698a5.627 5.627 0 0 0-5.627 5.628v14.134" stroke="#270570" stroke-width="3" stroke-linecap="round" stroke-linejoin="round"/>
        <path d="M87.447 36.717h-8.135l-7.326 8.522-7.11-8.522H54.865c-2.702 0-4.892-2.09-4.892-4.668V5.668C49.973 3.09 52.163 1 54.865 1h34.243C91.81 1 94 3.09 94 5.668v31.049" fill="#ADEDDD"/>
        <path d="M87.045 36.33h-7.924l-7.135 8.3-6.925-8.3H55.31c-2.632 0-4.765-2.035-4.765-4.546V6.09c0-2.51 2.133-4.546 4.765-4.546h33.353c2.631 0 4.764 2.035 4.764 4.546v17.44M80.404 14.695v9.782M75.19 19.587h10.428M57.46 19.586h10.43" stroke="#270570" stroke-width="3" stroke-linecap="round" stroke-linejoin="round"/>
    </g>
    <defs>
        <clipPath id="ffsstus81a">
            <path fill="#fff" d="M0 0h96v92H0z"/>
        </clipPath>
    </defs>
</svg>
