<svg width="126" height="81" viewBox="0 0 126 81" xmlns="http://www.w3.org/2000/svg" xmlns:xlink="http://www.w3.org/1999/xlink">
    <defs>
        <path id="a" d="M0 0h59.059v59.195H0z"/>
        <path d="M14.402 0c7.954 0 14.403 6.464 14.403 14.438 0 6.367-4.149 11.927-10.121 13.789a14.365 14.365 0 0 1-4.282.649c-1.694 0-3.35-.294-4.91-.862a.903.903 0 0 1 .613-1.696c1.365.496 2.813.753 4.297.753 1.286 0 2.545-.193 3.747-.567a12.635 12.635 0 0 0 8.855-12.066c0-6.977-5.642-12.633-12.602-12.633S1.8 7.46 1.8 14.438c0 3.33 1.29 6.456 3.56 8.798a.904.904 0 0 1-.02 1.276.899.899 0 0 1-1.273-.019A14.41 14.41 0 0 1 0 14.438C0 6.464 6.448 0 14.402 0zm4.951 16.92c.544 0 .964.48.892 1.02-.498 3.758-2.504 5.784-5.843 5.784-3.338 0-5.344-2.026-5.843-5.783a.902.902 0 0 1 .893-1.022zm-1.081 1.804h-7.74c.54 2.196 1.791 3.195 3.87 3.195 2.08 0 3.33-1 3.87-3.195zm-9.27-8.798c.994 0 1.8.808 1.8 1.805 0 .996-.806 1.805-1.8 1.805-.995 0-1.8-.809-1.8-1.805 0-.997.805-1.805 1.8-1.805zm10.801 0c.994 0 1.8.808 1.8 1.805 0 .996-.806 1.805-1.8 1.805s-1.8-.809-1.8-1.805c0-.997.806-1.805 1.8-1.805z" id="b"/>
    </defs>
    <g fill="none" fill-rule="evenodd">
        <path d="M.867 73.875h30.549a20.837 20.837 0 0 0 14.383-5.758l.303-.294 57.307-56.946c3.025-3.006 5.724-6.895 5.724-10.786H54.865L22.82 32.35H.914c-.026 0 0 41.676-.047 41.526z" fill="#A780FF" fill-rule="nonzero"/>
        <g>
            <path stroke="#FFF" stroke-width="1.21" fill="#FFF" d="M62.66 55.904H46.664l-.664-18.587.664-6.81 2.514-1.821h7.176l-2.023-1.089-4.152-3.365-1-3.218 1.48-3.58 3.672-1.31 3.803.587 2.642 4.303 1.886 7.843 4.138-.171 1.095-5.661 3.452-5.59 3.178-1.31 4.237 1.31 1.754 3.579-1.211 3.218-3.668 3.365h-4.29l3.178 1.089h10.37l1.611 3.266v18.48l-5.198 5.472z"/>
            <g fill-rule="nonzero">
                <path d="M48.963 28.686H83.54a2.965 2.965 0 0 1 2.965 2.965v6.834H45.999V31.65a2.965 2.965 0 0 1 2.964-2.965z" fill="#ADEDDD"/>
                <path d="M60.775 28.686h22.9c1.563 0 2.83 1.462 2.83 3.266v6.533h-23.08m-12.68 0h-4.746v-6.533c0-1.804 1.423-3.266 3.178-3.266h22.17" stroke="#270570" stroke-width="1.872" stroke-linecap="round" stroke-linejoin="round"/>
                <path d="M86.505 35.189v15.243l-2.8 2.948-2.398 2.524h-6.783M62.661 28.686v27.218H45.999V35.271M62.308 28.35c-1.115-5.923-2.402-9.61-3.86-11.06a5.4 5.4 0 0 0-7.79.144c-2.115 2.254-2.056 5.844.132 8.019 1.459 1.45 5.298 2.415 11.518 2.898zM67.11 28.35c1.116-5.923 2.402-9.61 3.86-11.06a5.4 5.4 0 0 1 7.791.144c2.115 2.254 2.056 5.844-.132 8.019-1.459 1.45-5.298 2.415-11.518 2.898zM66.8 27.597v28.307h2.189" stroke="#270570" stroke-width="1.872" stroke-linecap="round" stroke-linejoin="round"/>
            </g>
            <g transform="translate(22.595 37.857)">
                <ellipse fill="#FFF" cx="14.402" cy="14.438" rx="13.052" ry="13.084"/>
                <mask id="c" fill="#fff">
                    <use xlink:href="#b"/>
                </mask>
                <use fill="#CCC" fill-rule="nonzero" xlink:href="#b"/>
                <g mask="url(#c)" fill="#270570">
                    <path d="M-1.8-1.805h32.405V30.68H-1.8z"/>
                </g>
            </g>
        </g>
        <g stroke="#CCC">
            <path d="m119 5-.5 75.5" stroke-dasharray="5" stroke-width="2"/>
            <path d="M125.302 0c0 3.255-2.978 5.893-6.65 5.893C114.977 5.893 112 3.255 112 0" fill="#F8F8F8"/>
        </g>
    </g>
</svg>
