<svg width="120" height="113" viewBox="0 0 120 113" fill="none" xmlns="http://www.w3.org/2000/svg">
    <path fill-rule="evenodd" clip-rule="evenodd" d="M102.85 53.688c13.278-6.728 18.446-22.672 11.542-35.612C107.489 5.136 91.128.1 77.85 6.828 64.572 13.556 59.404 29.5 66.308 42.44c6.903 12.94 23.264 17.976 36.542 11.249z" fill="#fff"/>
    <path d="M105.426 58.516C89.411 66.63 69.68 60.556 61.353 44.95 53.027 29.343 59.26 10.114 75.274 2" stroke="#270570" stroke-width="3" stroke-linecap="round" stroke-linejoin="round"/>
    <path d="M64.657 27.123c.703 1.04 3.091 3.043 9.2 2.52 6.11-.524 7.485-.075 7.998-1.48.513-1.407-4.755-2.6-5.404-5.634-.65-3.035 2.3-1.67 2.787-3.346.486-1.676-2.674-3.23-1.289-5.003 1.385-1.773 5.04-6.573 4.196-8.154M106.372 9.586s-7.238 5.375-6.404 6.939c.834 1.564 2.206 1.634 4.939 1.231 2.732-.402 6.223-3.153 6.223-3.153" stroke="#270570" stroke-width="3" stroke-linecap="round" stroke-linejoin="round"/>
    <path d="M78.986 69.561h24.723l3.091 5.476H75.895l3.09-5.476z" fill="#CBF6EC" stroke="#270570" stroke-width="3" stroke-linecap="round" stroke-linejoin="round"/>
    <path d="M91.27 62.345v6.923" stroke="#270570" stroke-width="3" stroke-linecap="round" stroke-linejoin="round"/>
    <path d="M92.05 50.395c1.686 1.643 3.044 4.107 3.512 5.476 3.278-1.369 8.3-.796 13.345-6.16 7.726-8.214 7.024-13.005 7.024-13.005s-2.683-2.738-10.536-2.738c-6.321 0-7.726-3.423-11.94-3.423-4.215 0-6.322 3.423-5.62 6.845.703 3.423-.702 4.107 0 7.53.436 2.122 2.108 3.422 4.215 5.475z" fill="#CBF6EC"/>
    <path clip-rule="evenodd" d="M103.866 53.309c13.278-6.728 18.446-22.671 11.542-35.611C108.505 4.758 92.144-.278 78.866 6.449 65.588 13.177 60.42 29.121 67.324 42.061 74.227 55 90.588 60.037 103.866 53.309z" stroke="#270570" stroke-width="3" stroke-linecap="round" stroke-linejoin="round"/>
    <path d="M95.562 55.871c-.469-1.369-1.827-3.833-3.512-5.476-2.107-2.053-3.779-3.353-4.215-5.475-.702-3.423.703-4.107 0-7.53-.702-3.422 1.405-6.845 5.62-6.845 4.214 0 5.618 3.423 11.94 3.423 7.853 0 11.238 3.422 11.238 3.422" stroke="#270570" stroke-width="3" stroke-linecap="round" stroke-linejoin="round"/>
    <path clip-rule="evenodd" d="M26.749 21.823s2.932-9.555 9.304-9.555c6.371 0 9.205 9.555 9.205 9.555H26.749z" stroke="#270570" stroke-width="3" stroke-linecap="round"/>
    <path fill-rule="evenodd" clip-rule="evenodd" d="M10.362 46.637c-2.288 0-4.142-1.545-4.142-3.45l-.089-10.87.089-7.534c0-1.906 1.854-3.45 4.142-3.45h51.083c2.288 0 4.142 1.544 4.142 3.45v18.403c0 1.906-1.854 3.45-4.142 3.45H42.063v-5.621a3.724 3.724 0 0 0-3.724-3.725h-4.135a3.724 3.724 0 0 0-3.724 3.725v5.622H10.362z" fill="#FFE3E0"/>
    <path d="M6.22 43.186c0 1.906 1.854 3.45 4.142 3.45H30.48M6.131 32.317l.089-7.533c0-1.906 1.854-3.45 4.142-3.45h51.084c2.287 0 4.141 1.544 4.141 3.45v18.403c0 1.906-1.854 3.45-4.142 3.45h-18.71M19.51 73.152h8.687M19.51 78.507h8.687" stroke="#270570" stroke-width="3" stroke-linecap="round" stroke-linejoin="round"/>
    <path fill-rule="evenodd" clip-rule="evenodd" d="M41.615 46.389h21.543v34.945a6 6 0 0 1-6 6H12.36a6 6 0 0 1-6-6V46.389h23.73" fill="#fff"/>
    <path d="M41.615 46.389h21.543v34.945a6 6 0 0 1-6 6H12.36a6 6 0 0 1-6-6V46.389h23.73" stroke="#270570" stroke-width="3" stroke-linecap="round" stroke-linejoin="round"/>
    <path d="M63.158 62.312h7.003v13.335a6 6 0 0 1-6 6h-1.003V62.312zM2.47 62.312h7.002v19.335H8.469a6 6 0 0 1-6-6V62.312z" fill="#fff" stroke="#270570" stroke-width="3" stroke-linecap="round" stroke-linejoin="round"/>
    <path d="M34.563 38.202h4.134a3.724 3.724 0 0 1 3.724 3.724v9.421a3.724 3.724 0 0 1-3.724 3.724h-4.135a3.724 3.724 0 0 1-3.724-3.724v-9.42a3.724 3.724 0 0 1 3.724-3.725z" fill="#fff" stroke="#270570" stroke-width="3"/>
    <path d="M37.384 77.457a4 4 0 0 1 4-4h18.067l7.297 5.58V96.39l-6.403 5.683h-18.96a4 4 0 0 1-4-4V77.458z" fill="#CBF6EC"/>
    <path d="M102.873 77.19a4 4 0 0 0-4-4H73l-6.12 5.58v17.354l5.37 5.682h26.624a4 4 0 0 0 4-4V77.191z" fill="#fff"/>
    <path fill-rule="evenodd" clip-rule="evenodd" d="M53.83 84.245c.156.391.532.65.952.654l2.533.03c1.029.012 1.413 1.354.547 1.91l-1.736 1.112c-.408.26-.58.77-.416 1.225l.7 1.94c.333.919-.673 1.745-1.51 1.24l-2.43-1.464a1.037 1.037 0 0 0-1.07 0l-2.43 1.465c-.836.504-1.842-.322-1.51-1.24l.7-1.941a1.037 1.037 0 0 0-.415-1.225l-1.736-1.112c-.867-.556-.483-1.898.547-1.91l2.532-.03c.42-.005.796-.263.952-.654l.932-2.345c.346-.872 1.58-.872 1.927 0l.932 2.345z" fill="#270570"/>
    <path d="M77.47 73.92h-5.526l-5.03 4.903M54.704 73.899h7.136l5.03 4.902M66.248 85.235v4.616M88.802 101.631H72.037l-5.03-4.902" stroke="#270570" stroke-width="3" stroke-linecap="round" stroke-linejoin="round"/>
    <path d="m37.847 93.323-.023 3.522-.005.802c-.015 2.2 1.82 3.987 4.077 3.973l11.938-.074 8.538-.053 4.705-4.83M88.802 90.532H77.47M94.58 84.996H77.47M91.719 73.991l7.364-.005a4 4 0 0 1 4.002 4v19.69a4 4 0 0 1-4 4h-1.682" stroke="#270570" stroke-width="3" stroke-linecap="round" stroke-linejoin="round"/>
</svg>
