<svg width="119" height="89" viewBox="0 0 119 89" fill="none" xmlns="http://www.w3.org/2000/svg">
    <g clip-path="url(#1ht44qu0sa)">
        <path d="M77.98 26.864H14.89C7.77 26.864 2 32.634 2 39.754v34.282c0 7.119 5.771 12.89 12.89 12.89h63.09c7.119 0 12.89-5.771 12.89-12.89V39.754c0-7.12-5.771-12.89-12.89-12.89z" fill="#EBE5F5"/>
        <path d="M22.91 86.948V27.769M73.565 50.463V29.264M73.565 85.794V70.778" stroke="#270570" stroke-width="3" stroke-linecap="round"/>
        <path d="M11.824 27.498h69.64c5.454 0 9.875 4.4 9.875 9.827V74.09c0 6.95-5.635 12.586-12.586 12.586H15.055c-6.951 0-12.586-5.635-12.586-12.586V45.707" stroke="#270570" stroke-width="3" stroke-linecap="round" stroke-linejoin="round"/>
        <path clip-rule="evenodd" d="M33.726 17.042a4.195 4.195 0 0 1 3.954-2.793h17.56a4.195 4.195 0 0 1 3.953 2.793l3.708 10.456H30.019l3.707-10.456z" stroke="#270570" stroke-width="3"/>
        <path d="M99.782 37.214c10.061 0 18.218-8.107 18.218-18.107S109.843 1 99.782 1C89.72 1 81.563 9.107 81.563 19.107s8.157 18.107 18.219 18.107z" fill="#ADEDDD"/>
        <path fill-rule="evenodd" clip-rule="evenodd" d="M98.792 28.547c-.15 0-.28-.05-.392-.151a.496.496 0 0 1-.168-.387v-1.506c-1.12-.13-2.072-.398-2.856-.807-.784-.408-1.374-.914-1.77-1.516a3.74 3.74 0 0 1-.638-1.915c0-.129.049-.236.146-.322a.505.505 0 0 1 .347-.13h2.98c.194 0 .343.03.447.087.105.057.224.157.359.3.463.79 1.314 1.184 2.553 1.184.807 0 1.43-.118 1.871-.355.44-.237.66-.563.66-.979a.923.923 0 0 0-.347-.742c-.231-.194-.59-.366-1.075-.516-.485-.15-1.198-.32-2.14-.506-1.806-.344-3.157-.867-4.053-1.57-.896-.703-1.344-1.706-1.344-3.011 0-1.162.433-2.148 1.299-2.958.866-.81 2.053-1.316 3.561-1.517V9.725c0-.158.056-.287.168-.388.112-.1.243-.15.392-.15h1.949c.164 0 .299.05.403.15.105.1.157.23.157.388v1.548c.986.172 1.837.477 2.554.915.716.437 1.265.939 1.646 1.505.381.567.586 1.115.616 1.646a.466.466 0 0 1-.47.473h-3.136c-.344 0-.598-.129-.762-.387-.09-.301-.325-.556-.706-.764-.38-.208-.84-.312-1.377-.312-.627 0-1.113.108-1.456.323-.344.215-.515.53-.515.946 0 .416.224.743.672.98.448.236 1.276.476 2.486.72 1.404.244 2.524.548 3.36.914.836.366 1.448.839 1.837 1.42.388.58.582 1.316.582 2.205 0 1.262-.481 2.301-1.445 3.119-.963.817-2.258 1.326-3.886 1.527v1.506a.512.512 0 0 1-.157.387.557.557 0 0 1-.403.15h-1.949z" fill="#270570"/>
        <path d="M99.094 1.74c-9.682 0-17.53 7.801-17.53 17.424s7.848 17.424 17.53 17.424c9.682 0 17.531-7.801 17.531-17.424" stroke="#270570" stroke-width="3" stroke-linecap="round" stroke-linejoin="round"/>
    </g>
    <defs>
        <clipPath id="1ht44qu0sa">
            <path fill="#fff" d="M0 0h119v89H0z"/>
        </clipPath>
    </defs>
</svg>
